<svg xmlns="http://www.w3.org/2000/svg" width="23.333" height="18.526" viewBox="0 0 23.333 18.526">
  <path id="dashboard-monitoring-icon" d="M23.333,0V15.482H15.348V17.04h2.334v1.486H5.6V17.04H8.1V15.482H0V0ZM2.768,11.458H18.392v.687H2.768Zm0-1.833h9.97v.687H2.768ZM18.016,5.79l2.646.009a2.754,2.754,0,0,1-.789,1.927,2.7,2.7,0,0,1-.387.324l-1.47-2.26Zm-.271-.539-.141-2.9a.1.1,0,0,1,.1-.109l.057,0h.057a2.889,2.889,0,0,1,2.023.8,3.042,3.042,0,0,1,.941,2,.1.1,0,0,1-.094.111l-2.829.208a.1.1,0,0,1-.108-.1A.044.044,0,0,1,17.745,5.251Zm.066-2.809.131,2.7,2.623-.192A2.829,2.829,0,0,0,19.7,3.185a2.689,2.689,0,0,0-1.884-.743h0Zm-.383,3.224,1.418,2.523a2.78,2.78,0,0,1-1.418.391,2.876,2.876,0,0,1-2.837-2.913,2.89,2.89,0,0,1,2.425-2.883l.412,2.883Zm-8.1-3.116-.226-.288a.152.152,0,0,1-.032-.14c.038-.117.176-.105.271-.1.271.02.909.026,1.049.031a.149.149,0,0,1,.144.185c-.028.141-.158.819-.2,1.076-.016.089-.043.206-.156.214a.155.155,0,0,1-.129-.064l-.226-.288-.1-.133-1.41.913a.672.672,0,0,1-1.343-.034c0-.015,0-.03,0-.045l-.779-.563a.671.671,0,0,1-.875-.094l-1.307.7a.585.585,0,0,1,0,.07A.671.671,0,1,1,3.7,3.427l1.438-.771a.672.672,0,0,1,1.335.107c0,.015,0,.03,0,.045l.779.563a.671.671,0,0,1,.824.045l1.281-.83-.028-.036Zm.309,1.733h.926a.1.1,0,0,1,.1.1v3.6a.1.1,0,0,1-.1.1H9.641a.1.1,0,0,1-.1-.1V4.38a.1.1,0,0,1,.1-.1ZM7.386,5.516h.926a.1.1,0,0,1,.1.1V7.978a.1.1,0,0,1-.1.1H7.386a.1.1,0,0,1-.1-.1V5.613a.1.1,0,0,1,.1-.1ZM5.131,4.283h.927a.1.1,0,0,1,.1.1v3.6a.1.1,0,0,1-.1.1H5.131a.1.1,0,0,1-.1-.1V4.38A.1.1,0,0,1,5.131,4.283ZM2.876,5.714H3.8a.1.1,0,0,1,.1.1V7.978a.1.1,0,0,1-.1.1H2.876a.1.1,0,0,1-.1-.1V5.811a.1.1,0,0,1,.1-.1ZM.7,13.5H22.634V.7H.7Z" fill="#999" fill-rule="evenodd"/>
</svg>
