<svg xmlns="http://www.w3.org/2000/svg" width="25.5" height="20.247" viewBox="0 0 25.5 20.247">
  <path id="dashboard-monitoring-icon" d="M25.5,0V16.919H16.773v1.7h2.55v1.624H6.122V18.622H8.854v-1.7H0V0ZM3.025,12.522H20.1v.751H3.025Zm0-2h10.9v.751H3.025ZM19.689,6.328l2.891.01a3.01,3.01,0,0,1-.862,2.106,2.953,2.953,0,0,1-.423.354L19.689,6.328Zm-.3-.589-.154-3.174a.113.113,0,0,1,.105-.119l.062,0h.062a3.157,3.157,0,0,1,2.21.872A3.324,3.324,0,0,1,22.706,5.5a.113.113,0,0,1-.1.122l-3.092.227a.112.112,0,0,1-.118-.106.048.048,0,0,1,0-.008Zm.072-3.07.143,2.948,2.867-.21a3.091,3.091,0,0,0-.947-1.926,2.938,2.938,0,0,0-2.058-.812h0Zm-.418,3.523L20.6,8.949a3.038,3.038,0,0,1-1.55.427,3.143,3.143,0,0,1-3.1-3.184A3.159,3.159,0,0,1,18.6,3.041l.45,3.151ZM10.2,2.786l-.247-.314a.167.167,0,0,1-.035-.153c.042-.127.192-.115.3-.108.3.021.994.028,1.146.034a.163.163,0,0,1,.158.2c-.031.154-.173.895-.224,1.176-.018.1-.047.225-.17.234a.169.169,0,0,1-.14-.07l-.247-.315-.115-.145-1.54,1a.734.734,0,0,1-1.467-.037c0-.016,0-.033,0-.049l-.852-.615a.733.733,0,0,1-.956-.1l-1.428.765a.64.64,0,0,1,0,.076.733.733,0,1,1-.335-.617L5.619,2.9a.734.734,0,0,1,1.459.117c0,.016,0,.032,0,.049l.852.615a.733.733,0,0,1,.9.049l1.4-.907-.031-.04Zm.338,1.894h1.012a.106.106,0,0,1,.106.106V8.718a.106.106,0,0,1-.106.106H10.536a.107.107,0,0,1-.106-.106V4.786a.106.106,0,0,1,.106-.106ZM8.072,6.028H9.084a.106.106,0,0,1,.106.106V8.718a.106.106,0,0,1-.106.106H8.072a.106.106,0,0,1-.106-.106V6.134a.106.106,0,0,1,.106-.106ZM5.607,4.68H6.62a.106.106,0,0,1,.106.106V8.718a.106.106,0,0,1-.106.106H5.607A.106.106,0,0,1,5.5,8.718V4.786A.106.106,0,0,1,5.607,4.68ZM3.143,6.245H4.156a.106.106,0,0,1,.106.106V8.718a.106.106,0,0,1-.106.106H3.143a.106.106,0,0,1-.106-.106V6.351a.106.106,0,0,1,.106-.106ZM.761,14.751H24.735V.761H.761Z" fill="#007bff" fill-rule="evenodd"/>
</svg>
