<svg xmlns="http://www.w3.org/2000/svg" width="20.03" height="18.387" viewBox="0 0 20.03 18.387">
  <path id="group-icon" d="M7.845,18.384c.382-4.944,1.281-3.116,5.522-5.769,1.31,2.733,6.633,2.932,7.725,0,3.66,2.34,5.424.795,5.424,5.769H7.845ZM14.367,12.4c-.056-.073.148-.577.2-.658a2.762,2.762,0,0,1-1.085-2.015h-.06a.8.8,0,0,1-.393-.1,1.072,1.072,0,0,1-.432-.525c-.2-.459-.857-1.98.144-1.86-.559-1.045.708-2.831-1.478-3.492,1.793-2.271,5.576-5.773,8.349-2.26a3.388,3.388,0,0,1,1.938,5.875c.119,0,.725.731.625,1.1-.1.309-.7,1.3-1.1,1.26-.021,1.008-.486,1.5-.941,2.674-.84,1.782-4.329,1.854-5.759,0Zm-7.88,5.807C6.48,18.265,6.575,17.089,6.487,18.207Z" transform="translate(-6.486 0.003)" fill-rule="evenodd" opacity="0.4"/>
</svg>
