<svg xmlns="http://www.w3.org/2000/svg" width="72.643" height="64.571" viewBox="0 0 72.643 64.571">
  <path id="Icon_metro-users" data-name="Icon metro-users" d="M51,53.736V50.408c4.445-2.505,8.071-8.751,8.071-15,0-10.03,0-18.161-12.107-18.161S34.857,25.381,34.857,35.411c0,6.247,3.626,12.492,8.071,15v3.328c-13.69,1.119-24.214,7.846-24.214,15.978h56.5c0-8.132-10.524-14.859-24.214-15.978ZM23.2,55.295a38.342,38.342,0,0,1,12.6-5.071A22.766,22.766,0,0,1,33.249,46.5a23.109,23.109,0,0,1-2.932-11.092c0-5.426,0-10.55,1.93-14.741,1.873-4.067,5.242-6.589,10.04-7.535C41.22,8.313,38.381,5.143,30.821,5.143c-12.107,0-12.107,8.131-12.107,18.161,0,6.247,3.626,12.492,8.071,15v3.328C13.1,42.748,2.571,49.475,2.571,57.607H20.165A25.85,25.85,0,0,1,23.2,55.295Z" transform="translate(-2.571 -5.143)" fill="#fff"/>
</svg>
