<svg xmlns="http://www.w3.org/2000/svg" width="18" height="21.728" viewBox="0 0 18 21.728">
  <g id="Group_2559" data-name="Group 2559" transform="translate(-43 -440)">
    <path id="Path_718" data-name="Path 718" d="M18.364,17.364,12,23.728,5.636,17.364a9,9,0,1,1,12.728,0ZM12,13a2,2,0,1,0-2-2A2,2,0,0,0,12,13Z" transform="translate(40 438)" fill="#999"/>
    <circle id="Ellipse_285" data-name="Ellipse 285" cx="3" cy="3" r="3" transform="translate(49 446)" fill="#999"/>
    <path id="Path_719" data-name="Path 719" d="M8.161,14.323A6.161,6.161,0,1,0,2,8.161,6.162,6.162,0,0,0,8.161,14.323ZM9.086,5.7a2.3,2.3,0,0,1,.416.924h1.124v.924H9.5A2.311,2.311,0,0,1,7.237,9.394H7.121l2.292,2.292-.653.653L5.7,9.277V8.47h1.54a1.387,1.387,0,0,0,1.307-.924H5.7V6.621H8.545A1.387,1.387,0,0,0,7.237,5.7H5.7V4.773h4.929V5.7Z" transform="translate(43.839 440.838)" fill="#fff"/>
  </g>
</svg>
