<svg xmlns="http://www.w3.org/2000/svg" width="18.5" height="18.5" viewBox="0 0 18.5 18.5">
  <path id="rupee-coin-solid-icon" d="M9.25,2.152a7.1,7.1,0,1,1-7.1,7.1A7.1,7.1,0,0,1,9.25,2.152ZM9.25,0A9.25,9.25,0,1,1,2.709,2.709,9.222,9.222,0,0,1,9.25,0Zm5.9,3.35a8.343,8.343,0,1,0,2.444,5.9,8.317,8.317,0,0,0-2.444-5.9ZM6.543,8.526,7,7.492H8.733a.935.935,0,0,0-.9-.573H6.543L7,5.885h4.954L11.5,6.919H10.3a1.039,1.039,0,0,1,.359.573h1.3L11.5,8.526h-.938A2.618,2.618,0,0,1,8.545,9.934l2.6,2.68H9.09L6.769,10.068V9.118H7.8a.888.888,0,0,0,.291-.049.953.953,0,0,0,.6-.543Z" fill-rule="evenodd" opacity="0.4"/>
</svg>
