<svg xmlns="http://www.w3.org/2000/svg" width="23.497" height="22.581" viewBox="0 0 23.497 22.581">
  <path id="tickets-icon" d="M2.223,14.7,15.616,1.3l.021-.014a.946.946,0,0,1,.3-.192.973.973,0,0,1,.733,0,.95.95,0,0,1,.309.207l1.759,1.759a.34.34,0,0,1,.1.212.365.365,0,0,1-.056.229,1.623,1.623,0,0,0,2.231,2.26.349.349,0,0,1,.233-.068.352.352,0,0,1,.223.1l1.759,1.759a.94.94,0,0,1,.206.309.966.966,0,0,1,0,.734.944.944,0,0,1-.206.309L9.829,22.3a.949.949,0,0,1-.309.206.96.96,0,0,1-.734,0,.944.944,0,0,1-.309-.206L6.7,20.53a.341.341,0,0,1-.1-.2.361.361,0,0,1,.046-.221,1.539,1.539,0,0,0,.2-.5,1.628,1.628,0,0,0-1.921-1.937,1.657,1.657,0,0,0-.5.192.373.373,0,0,1-.231.056.344.344,0,0,1-.214-.1L2.223,16.048a.94.94,0,0,1-.207-.309.963.963,0,0,1,0-.733.95.95,0,0,1,.207-.309ZM14.915,1.205l-.471.478L13.5.738a.25.25,0,0,0-.353,0L11.479,2.405a.394.394,0,0,1,.066.053l.477.477a.337.337,0,1,1-.477.477l-.478-.477c-.012-.012-.021-.024-.032-.038l-.019-.029L2.871,11.013a.352.352,0,0,1,.09.067l.477.478a.393.393,0,0,1,.033.037.338.338,0,0,1-.51.441,3.968,3.968,0,0,1-.543-.57L.742,13.143l-.027.016a.263.263,0,0,0-.033.251.23.23,0,0,0,.053.079l.618.618-.179.764-.9-.9a.894.894,0,0,1-.2-.3.932.932,0,0,1,0-.7.9.9,0,0,1,.2-.3l12.4-12.4.02-.014a.9.9,0,0,1,.283-.184.931.931,0,0,1,.7,0,.906.906,0,0,1,.3.2Zm5.5,9.361a.383.383,0,0,0,.087.065l-8.945,8.945-.015-.022a.449.449,0,0,0-.034-.039l-.5-.5a.353.353,0,0,0-.532.459.443.443,0,0,0,.034.039l.5.5a.374.374,0,0,0,.06.05L9.33,21.8a.259.259,0,0,1-.083.056.276.276,0,0,1-.1.02.27.27,0,0,1-.1-.021.229.229,0,0,1-.082-.054L7.375,20.216a2.368,2.368,0,0,0,.176-.582,2.328,2.328,0,0,0-3.255-2.5L2.708,15.55a.243.243,0,0,1-.055-.083.261.261,0,0,1-.019-.1.27.27,0,0,1,.054-.16l.027-.017,1.75-1.75A.417.417,0,0,0,4.5,13.5a.339.339,0,0,0,.034.039l.5.5a.353.353,0,0,0,.532-.459.433.433,0,0,0-.034-.039l-.5-.5a.4.4,0,0,0-.095-.07l8.948-8.948.02.03a.443.443,0,0,0,.034.039l.5.5a.353.353,0,0,0,.532-.459.439.439,0,0,0-.034-.039l-.5-.5a.388.388,0,0,0-.068-.055l1.74-1.74a.259.259,0,0,1,.083-.056.27.27,0,0,1,.285.056l1.573,1.573a2.316,2.316,0,0,0,3.1,3.1l1.573,1.573a.243.243,0,0,1,.055.083.273.273,0,0,1,.019.1.265.265,0,0,1-.074.184l-1.744,1.744a.473.473,0,0,0-.03-.049.383.383,0,0,0-.034-.039l-.5-.5a.353.353,0,0,0-.532.459c.011.014.021.026.034.039l.5.5ZM14.432,6.721l3.448,3.449a1.168,1.168,0,0,1-.02,1.629l-5.138,5.138a1.169,1.169,0,0,1-1.65,0L7.644,13.509a1.168,1.168,0,0,1,0-1.649L12.782,6.72a1.169,1.169,0,0,1,1.65,0Zm2.948,3.908L13.952,7.2a.488.488,0,0,0-.345-.144.494.494,0,0,0-.345.143L8.124,12.339a.491.491,0,0,0,0,.69l3.428,3.428a.491.491,0,0,0,.69,0l5.138-5.138a.493.493,0,0,0,.013-.678l-.013-.012ZM9.516,18.518a.353.353,0,0,0,.532-.459.459.459,0,0,0-.034-.039l-.5-.5a.353.353,0,0,0-.532.46.432.432,0,0,0,.034.039l.5.5Zm-1.495-1.5a.353.353,0,0,0,.532-.459.44.44,0,0,0-.034-.039l-.5-.5a.353.353,0,0,0-.532.459.383.383,0,0,0,.034.039Zm-1.5-1.495a.353.353,0,0,0,.532-.459.385.385,0,0,0-.034-.039l-.5-.5a.353.353,0,0,0-.532.46c.011.014.021.026.034.039l.5.5ZM18.921,9.071a.353.353,0,0,0,.532-.459.46.46,0,0,0-.034-.039l-.5-.5a.353.353,0,0,0-.532.459.456.456,0,0,0,.034.039l.5.5ZM17.426,7.576a.353.353,0,0,0,.532-.459.439.439,0,0,0-.034-.039l-.5-.5a.353.353,0,0,0-.532.459c.011.014.021.026.034.039l.5.5ZM15.932,6.081a.353.353,0,0,0,.532-.459.46.46,0,0,0-.034-.039l-.5-.5a.353.353,0,0,0-.532.459.339.339,0,0,0,.034.039l.5.5Z" transform="translate(-0.004)" fill-rule="evenodd" opacity="0.4"/>
</svg>
